<?xml version="1.0" encoding="UTF-8"?>
<svg width="17px" height="21px" viewBox="0 0 17 21" version="1.1" xmlns="http://www.w3.org/2000/svg" xmlns:xlink="http://www.w3.org/1999/xlink">
    <!-- Generator: sketchtool 54 (76480) - https://sketchapp.com -->
    <title>B61CDBDA-9332-4F3F-BA95-D42734EBB86E</title>
    <desc>Created with sketchtool.</desc>
    <g id="dash" stroke="none" stroke-width="1" fill="none" fill-rule="evenodd">
        <g id="01.1-home-datapar" transform="translate(-1200.000000, -21.000000)" fill="#FFFFFF" fill-rule="nonzero">
            <g id="header">
                <path d="M1216.95844,36.6232617 C1216.87681,36.1779551 1216.45744,35.8846113 1216.02169,35.9680781 C1215.58602,36.0515449 1215.29896,36.4801582 1215.38059,36.9254238 C1215.44118,37.2558047 1215.29908,37.4912344 1215.20902,37.6021816 C1215.11917,37.7128008 1214.91947,37.8984375 1214.5918,37.8984375 L1202.40818,37.8984375 C1202.08051,37.8984375 1201.88081,37.7128418 1201.79096,37.6021816 C1201.7009,37.4912344 1201.5588,37.2558047 1201.61939,36.9254238 C1201.84706,35.6837988 1202.30388,34.8671367 1202.74565,34.0773398 C1203.28217,33.1182305 1203.83694,32.1264316 1203.83694,30.5976152 L1203.83694,29.3671465 C1203.83694,26.7804141 1205.89421,24.6473965 1208.42406,24.6098672 L1208.5758,24.6098672 C1211.0971,24.6473145 1213.14751,26.780332 1213.14751,29.3671875 L1213.14751,30.5976562 C1213.14751,31.8987949 1213.56395,32.794125 1213.95431,33.5312168 C1214.09959,33.8055293 1214.37569,33.9612246 1214.66087,33.9612246 C1214.78989,33.9612246 1214.9208,33.9293555 1215.0422,33.8621719 C1215.43207,33.6465527 1215.57703,33.1487051 1215.36602,32.7503203 C1214.97762,32.0168789 1214.75277,31.4294941 1214.75277,30.5976562 L1214.75277,29.3671875 C1214.75277,27.6789434 1214.11295,26.0844199 1212.9511,24.8773711 C1211.95544,23.842916 1210.67697,23.1973711 1209.29488,23.0191992 L1209.29488,21.8203125 C1209.29488,21.3672539 1208.93554,21 1208.49224,21 C1208.04895,21 1207.68961,21.3672539 1207.68961,21.8203125 L1207.68961,23.0216191 C1204.62124,23.4284941 1202.23172,26.134377 1202.23172,29.3671875 L1202.23172,30.5976562 C1202.23172,31.6905996 1201.84353,32.384543 1201.35208,33.2630977 C1200.86793,34.1286914 1200.31913,35.1097441 1200.04158,36.6232617 C1199.90911,37.345793 1200.09652,38.0844844 1200.55579,38.6500078 C1201.01461,39.2150391 1201.68983,39.5390625 1202.40818,39.5390625 L1206.09984,39.5390625 C1206.09984,40.8960234 1207.18002,42 1208.50774,42 C1209.83545,42 1210.91563,40.8960234 1210.91563,39.5390625 L1214.5918,39.5390625 C1215.31015,39.5390625 1215.98537,39.2150391 1216.44419,38.6500078 C1216.90346,38.0845254 1217.09087,37.345793 1216.95844,36.6232617 Z M1208.50774,40.359375 C1208.06516,40.359375 1207.7051,39.9913828 1207.7051,39.5390625 L1209.31037,39.5390625 C1209.31037,39.9913828 1208.95035,40.359375 1208.50774,40.359375 Z" id="icon-notificacao"></path>
            </g>
        </g>
    </g>
</svg>