<?xml version="1.0" encoding="UTF-8"?>
<svg width="105px" height="20px" viewBox="0 0 105 20" version="1.1" xmlns="http://www.w3.org/2000/svg" xmlns:xlink="http://www.w3.org/1999/xlink">
    <!-- Generator: sketchtool 54 (76480) - https://sketchapp.com -->
    <title>172B4A29-1FCA-44E6-9907-30954E9B402A</title>
    <desc>Created with sketchtool.</desc>
    <g id="dash" stroke="none" stroke-width="1" fill="none" fill-rule="evenodd">
        <g id="01.1-home-datapar" transform="translate(-88.000000, -22.000000)" fill="#FFFFFF">
            <g id="header">
                <g id="logo-datapar" transform="translate(88.000000, 22.000000)">
                    <path d="M2.05778716,7.32097277 L8.04846284,7.32097277 C8.00121284,7.3552922 7.95353716,7.38866208 7.90728041,7.42596582 C7.48103716,7.7749931 7.14475338,8.28842811 6.89658446,8.96315089 L1.35698311,8.96315089 C1.54300338,8.38596041 1.77513851,7.83766337 2.05778716,7.32097277 Z M6.61231824,11.2974014 L0.922453378,11.2974014 C0.935365541,10.7888498 1.01454122,10.241231 1.15870338,9.65535894 L6.6865277,9.65535894 C6.51796014,10.3413407 6.49270338,10.8892308 6.61231824,11.2974014 Z M18.7602223,1.96014157 L13.1820264,1.96014157 L13.6860264,0.0099024453 L19.2537223,0.0099024453 L18.7602223,1.96014157 Z M16.2223723,11.9895688 L15.8067709,13.6317469 L1.47129122,13.6317469 C1.18665608,13.149647 1.01298041,12.6021639 0.94955473,11.9895688 L7.11816284,11.9895688 C7.41159527,12.1946715 7.79158176,12.2993932 8.26280473,12.2993932 C8.76467635,12.2993932 9.22667635,12.1944002 9.65079122,11.9895688 L16.2223723,11.9895688 Z M11.4254189,9.65529112 L16.8130541,9.65529112 L16.3975946,11.2973336 L10.5822973,11.2973336 C10.9515,10.8871282 11.2321622,10.3392381 11.4254189,9.65529112 Z M1.99597905,14.3238329 L10.1610061,14.3238329 C9.65203986,14.7340383 9.13243176,15.054986 8.60189797,15.282471 C7.85852635,15.6017909 6.97936419,15.7609083 5.96299257,15.7609083 C4.23375608,15.7609083 2.91160743,15.2816571 1.99597905,14.3238329 Z M13.0032709,2.65230893 L18.5850142,2.65230893 L18.1695547,4.29448705 L12.5790142,4.29448705 L13.0032709,2.65230893 Z M10.6316331,14.3238329 L15.6317615,14.3238329 L15.3574845,15.4074046 L10.3596264,15.4074046 L10.6316331,14.3238329 Z M12.2440642,4.29447349 L4.84198986,4.29447349 C5.11044932,4.12518237 5.38869932,3.97244054 5.67830068,3.8384184 C6.78888851,3.32294865 7.89138851,3.06494247 8.98778716,3.06453552 C9.89788176,3.06453552 10.6633885,3.21646345 11.2862939,3.52018366 C11.627402,3.69083127 11.946375,3.949787 12.2440642,4.29447349 Z M11.2793696,7.32097277 L17.4037074,7.32097277 L16.9881061,8.96315089 L11.5784777,8.96315089 C11.6843291,8.27527006 11.6088426,7.75315346 11.3463426,7.40276968 C11.3256264,7.37360494 11.3017885,7.34810275 11.2793696,7.32097277 Z M3.91658514,4.98664085 L17.9943892,4.98664085 L17.5789297,6.62881897 L2.48007162,6.62881897 C2.5941527,6.45844265 2.71192297,6.29037238 2.83763919,6.12732116 C3.16995,5.70165166 3.53063919,5.32318834 3.91658514,4.98664085 Z" id="Combined-Shape"></path>
                    <path d="M37.6077223,2.65230893 L42.8517628,2.65230893 L42.8225331,2.74522914 L45.3746007,2.74522914 L44.8995466,4.29448705 L35.1220601,4.29448705 L35.5972561,2.74522914 L37.5783507,2.74522914 L37.6077223,2.65230893 Z M34.9098466,4.98664085 L44.6873331,4.98664085 L44.5042926,5.58363622 L41.8885155,5.58363622 L41.5679818,6.62881897 L36.297975,6.62881897 L36.6183669,5.58363622 L34.7266642,5.58363622 L34.9098466,4.98664085 Z M43.0682757,1.96014157 L37.8267892,1.96014157 L38.4374919,0.0301142857 C38.4374919,0.0301142857 43.6816743,0.090614157 43.6818162,1.33226763e-14 L43.0682757,1.96014157 Z M42.489073,11.9895688 L41.9854986,13.6317469 L34.4409649,13.6317469 C34.4164176,13.2531479 34.4946,12.7059361 34.6759378,11.9895688 L42.489073,11.9895688 Z M34.6659628,14.3238329 L41.7731858,14.3238329 L41.4976318,15.2225137 C40.5348953,15.3249294 39.5284561,15.3757981 38.4787399,15.3763407 C36.971848,15.3763407 35.950652,15.2425899 35.415152,14.9742743 C35.0801453,14.8013206 34.8306993,14.5842807 34.6659628,14.3238329 Z M40.6397676,9.65529112 L40.383227,10.491573 C40.2779432,10.8350386 40.2715581,11.1026759 40.3603824,11.2973336 L34.8674635,11.2973336 C34.8860514,11.2346633 34.904923,11.1717218 34.9247878,11.1070167 L35.3699027,9.65529112 L40.6397676,9.65529112 Z M36.0857189,7.32097277 L41.3557257,7.32097277 L40.8520095,8.96315089 L35.5821446,8.96315089 L36.0857189,7.32097277 Z" id="Combined-Shape"></path>
                    <path d="M70.9885561,6.10183254 C70.3728872,6.10183254 69.7841777,6.33352263 69.2227115,6.79690281 C68.6633736,7.25214399 68.2554345,7.92388247 67.9973331,8.81144 C67.6968061,9.84604206 67.6773669,10.5910315 67.9391574,11.0462727 C68.2090358,11.5019208 68.6603939,11.7292701 69.2920966,11.7292701 C69.7191912,11.7292701 70.130252,11.6291605 70.5247115,11.4285342 C70.9276845,11.227908 71.2828399,10.9077741 71.5920223,10.4673188 C71.9105696,10.0199453 72.1561845,9.49877822 72.3290088,8.90422456 C72.6001642,7.97000345 72.5939209,7.27194888 72.3099953,6.80843305 C72.0365696,6.33786342 71.5955696,6.10223949 70.9885561,6.10183254 L70.9885561,6.10183254 Z M59.9251034,19.2214874 L64.6681236,2.89438981 L69.3101169,2.89438981 L68.7854007,4.70097565 C69.2432858,4.08363279 69.9098939,3.57006214 70.7838061,3.16053498 C71.6601304,2.74381838 72.5990291,2.53546008 73.6007858,2.53546008 C74.7086777,2.53546008 75.6366507,2.80160525 76.3849885,3.3349808 C77.1327588,3.8668642 77.5912115,4.63532108 77.7596372,5.63872366 C77.9297655,6.63466548 77.8378196,7.74265416 77.4832318,8.96228273 C76.9007655,10.9696305 75.8731845,12.5556495 74.402475,13.7208825 C72.9310561,14.8872006 71.361448,15.4691388 69.6956372,15.4700884 C69.1126034,15.4700884 68.6269074,15.4036199 68.2384074,15.2728534 C67.8555831,15.1491406 67.5567588,14.9911085 67.3420764,14.797943 C67.1353399,14.6049131 66.9049074,14.2964451 66.6506372,13.8719965 L65.0967791,19.2214874 L59.9251034,19.2214874 Z" id="Fill-37"></path>
                    <path d="M93.2646182,15.5122213 L96.4368953,3.02157519 L100.653497,3.02157519 L100.017679,5.52689385 C100.648105,4.52199912 101.314713,3.79396592 102.018213,3.34265858 C102.723699,2.8833479 103.517584,2.65382821 104.401145,2.65342126 C104.592132,2.65342126 104.772334,2.66997055 104.941044,2.70103439 L103.680476,7.66405858 C103.244017,7.58497467 102.904611,7.54577184 102.661976,7.54536489 C101.749328,7.54536489 100.998294,7.80635537 100.409868,8.32887892 C99.8227196,8.84380607 99.3777466,9.69853632 99.0739561,10.8937479 L97.900652,15.5122213 L93.2646182,15.5122213 Z" id="Fill-39"></path>
                    <path d="M87.682052,9.98011846 C87.4622615,10.0714109 87.1798966,10.1625676 86.8350993,10.2535887 C86.4988155,10.3448811 85.8753426,10.4742912 84.9646804,10.6410049 C84.3406399,10.7554935 83.9013426,10.9146109 83.6470723,11.1198492 C83.4014574,11.3248163 83.2448088,11.5760399 83.1786872,11.8721638 C83.1063223,12.1916194 83.1764169,12.4500325 83.3899642,12.6472675 C83.6113155,12.8451807 84.0003831,12.9439339 84.5573088,12.9439339 C84.973052,12.9439339 85.3849642,12.8679699 85.7936128,12.7157707 C86.2116264,12.5562464 86.5626669,12.343276 86.8475858,12.0775378 C87.0496399,11.8800315 87.2098358,11.6296217 87.3291669,11.3248163 C87.4067818,11.1279882 87.524552,10.6792582 87.682052,9.98011846 M84.705302,6.98211923 L79.6434507,6.98211923 C79.8826804,6.21488319 80.1860453,5.60703583 80.5538291,5.15817019 C80.9223223,4.70238641 81.4074507,4.31863274 82.010775,4.00704484 C82.8090588,3.59670378 83.7058155,3.30817637 84.6994845,3.1406487 C85.6947142,2.96606723 86.7028561,2.87897997 87.7258966,2.87857302 C88.7065115,2.87857302 89.5697818,2.9393442 90.3157074,3.06102219 C91.0707142,3.17510378 91.6887953,3.36501369 92.1693831,3.63075192 C92.6491196,3.89703274 92.9987412,4.1932922 93.2154101,4.51993725 C93.4325047,4.84698924 93.5546736,5.26492669 93.5809236,5.7737496 C93.6019236,6.08547315 93.5085588,6.70105256 93.3016804,7.62035218 L91.9053223,13.8101944 C91.7818764,14.3576775 91.9144034,14.7828044 92.3029034,15.0867959 L92.2492682,15.3260824 L86.8629101,15.3260824 L86.8941264,14.026556 C86.101802,14.5893676 85.2891872,15.0068981 84.4538696,15.2807753 C83.621248,15.5465136 82.7098764,15.6787723 81.7211736,15.6795862 C80.0753696,15.6795862 78.9425047,15.3225555 78.3220115,14.6079517 C77.7019439,13.8938904 77.5031534,13.0429584 77.7260655,12.0543416 C77.8546196,11.4846119 78.1142818,10.9413339 78.5053358,10.4242363 C78.9063223,9.90008499 79.381802,9.48621704 79.9329101,9.18222553 C80.4848696,8.87063763 81.2168899,8.62755295 82.1293966,8.45215758 C83.0514101,8.27011537 84.3634845,8.09160005 86.0656196,7.91661163 C86.9501736,7.82586183 87.5228493,7.71937663 87.7833628,7.59769864 C88.1552615,7.42325282 88.3804439,7.16117714 88.4593358,6.81079336 C88.5282953,6.50734445 88.4469912,6.26032592 88.2151399,6.07028036 C87.9919439,5.8805061 87.5353358,5.78555115 86.8455993,5.78555115 C86.180552,5.78555115 85.6877615,5.88769555 85.3675115,6.0932052 C85.0488223,6.29071151 84.8276128,6.58683532 84.705302,6.98211923" id="Fill-42"></path>
                    <polygon id="Fill-44" points="0 18.686796 57.3020473 18.686796 57.3020473 17.2560961 0 17.2560961"></polygon>
                    <path d="M28.2186081,7.27996579 L33.3155068,7.27996579 C33.2869865,7.41832873 33.2561959,7.56211766 33.2210068,7.71797943 L32.9224662,9.03798896 L20.3423311,9.03798896 C20.8159662,8.8387192 21.3839595,8.67512538 22.0491486,8.54761444 C22.9710203,8.36557223 24.2828108,8.18814211 25.9852297,8.01383194 C26.8696419,7.92321779 27.4423176,7.81686824 27.7028311,7.69532589 C27.9292905,7.58938329 28.1006959,7.45074906 28.2186081,7.27996579 Z M20.4726162,5.26396358 C20.5967716,5.1108148 20.7355419,4.96661892 20.8862311,4.82988378 L33.2495554,4.82988378 C33.394427,5.1205816 33.4789946,5.46893063 33.5002784,5.87723694 C33.5109203,6.03554041 33.491623,6.2729278 33.4433797,6.5877713 L28.3908932,6.5877713 C28.3620892,6.42811133 28.2769541,6.28961274 28.1344946,6.1729538 C27.9112986,5.98358649 27.4546905,5.88944543 26.7649541,5.88890283 C26.0999068,5.88890283 25.6069743,5.99118288 25.2868662,6.19547169 C25.1195757,6.29910824 24.9798122,6.43028172 24.8665824,6.5877713 L19.7356297,6.5877713 C19.9432176,6.0518184 20.1888324,5.60973526 20.4726162,5.26396358 Z M26.7451743,12.1801841 L32.2118432,12.1801841 L31.8254716,13.888695 C31.8214986,13.9056512 31.8202216,13.9215223 31.8168162,13.9382072 L17.7683838,13.9382072 C17.5427757,13.4113429 17.499073,12.8254708 17.6375595,12.1801841 L23.0711676,12.1801841 C23.0698905,12.3977666 23.1490662,12.5811653 23.3101135,12.7294307 C23.5311811,12.9263944 23.9199649,13.0246049 24.4778838,13.0246049 C24.8932014,13.0246049 25.3051135,12.9489123 25.7131946,12.7976626 C26.1212757,12.6423434 26.4642284,12.4358842 26.7451743,12.1801841 Z M19.1816696,9.73014275 L32.7659736,9.73014275 L32.3683926,11.4880303 L27.2145953,11.4880303 C27.2256628,11.4622568 27.2381493,11.4382467 27.2486493,11.4115237 C27.326548,11.21456 27.4438926,10.7670509 27.6018182,10.0706241 C27.3820277,10.1612382 27.1000885,10.2522594 26.7547236,10.3432805 C26.4181561,10.433759 25.7951088,10.5628977 24.8844466,10.7294758 C24.260548,10.8432861 23.8209669,11.0021322 23.5671223,11.206828 C23.4642507,11.2925587 23.3779804,11.3865641 23.306325,11.4880303 L17.8561155,11.4880303 C17.9968723,11.1535175 18.1861561,10.8285003 18.425102,10.5135211 C18.6526966,10.2164478 18.905548,9.9562712 19.1816696,9.73014275 Z M18.1980466,14.6302389 L25.9897561,14.6302389 C25.4603574,14.9331453 24.9223034,15.1756873 24.3747426,15.3546096 C23.5415534,15.6189913 22.6303236,15.7517926 21.6410534,15.7521996 C19.995675,15.7521996 18.8623845,15.3961185 18.2423169,14.6839563 C18.2269926,14.6663218 18.2129453,14.6481447 18.1980466,14.6302389 Z M30.2346791,3.17317755 C30.9898277,3.2868522 31.6079088,3.47662646 32.0884966,3.74141514 C32.315098,3.86675568 32.5113345,3.99901436 32.6794764,4.1376486 L21.8903007,4.1376486 C21.9036385,4.13073045 21.916125,4.12340535 21.9293209,4.11648721 C22.7283142,3.7070957 23.6245034,3.41938219 24.6184561,3.25293972 C25.6136858,3.0790365 26.6222534,2.99208489 27.6448682,2.99113534 C28.6254831,2.99113534 29.4881858,3.05177086 30.2346791,3.17317755 Z M31.8380291,14.6302389 C31.9058534,14.8360199 32.033698,15.0131787 32.2234074,15.1611728 L32.1694885,15.399781 L26.7831304,15.399781 L26.8017182,14.6302389 L31.8380291,14.6302389 Z" id="Combined-Shape"></path>
                    <path d="M54.7046595,7.27996579 L59.8015581,7.27996579 C59.7730378,7.41832873 59.7422473,7.56211766 59.7070581,7.71797943 L59.4085176,9.03798896 L46.8283824,9.03798896 C47.3020176,8.8387192 47.8700108,8.67512538 48.5352,8.54761444 C49.4570716,8.36557223 50.7688622,8.18814211 52.4712811,8.01383194 C53.3556932,7.92321779 53.9283689,7.81686824 54.1888824,7.69532589 C54.4153419,7.58938329 54.5867473,7.45074906 54.7046595,7.27996579 Z M46.9586676,5.26396358 C47.082823,5.1108148 47.2215932,4.96661892 47.3722824,4.82988378 L59.7356068,4.82988378 C59.8803365,5.1205816 59.9650459,5.46893063 59.9861878,5.87723694 C59.9969716,6.03554041 59.9778162,6.2729278 59.9292892,6.5877713 L54.8769446,6.5877713 C54.8481405,6.42811133 54.7630054,6.28961274 54.6205459,6.1729538 C54.39735,5.98358649 53.9406,5.88944543 53.2510054,5.88890283 C52.5859581,5.88890283 52.0930257,5.99118288 51.7729176,6.19547169 C51.6054851,6.29910824 51.4658635,6.43028172 51.3526338,6.5877713 L46.2216811,6.5877713 C46.4292689,6.0518184 46.6748838,5.60973526 46.9586676,5.26396358 Z M53.2311405,12.1801841 L58.6978095,12.1801841 L58.3114378,13.888695 C58.3074649,13.9056512 58.3063297,13.9215223 58.3027824,13.9382072 L44.2544919,13.9382072 C44.0287419,13.4113429 43.9850392,12.8254708 44.1236676,12.1801841 L49.5572757,12.1801841 C49.5558568,12.3977666 49.6351743,12.5811653 49.7960797,12.7294307 C50.0172892,12.9263944 50.406073,13.0246049 50.9639919,13.0246049 C51.3791676,13.0246049 51.7910797,12.9489123 52.1993027,12.7976626 C52.6072419,12.6423434 52.9501946,12.4358842 53.2311405,12.1801841 Z M45.6676358,9.73014275 L59.2519399,9.73014275 L58.8545007,11.4880303 L53.7005615,11.4880303 C53.7116291,11.4622568 53.7241155,11.4382467 53.7347574,11.4115237 C53.8125142,11.21456 53.9298588,10.7670509 54.0877845,10.0706241 C53.8681358,10.1612382 53.5860547,10.2522594 53.2406899,10.3432805 C52.9042642,10.433759 52.281075,10.5628977 51.3705547,10.7294758 C50.7465142,10.8432861 50.3069331,11.0021322 50.0530885,11.206828 C49.9502169,11.2925587 49.8639466,11.3865641 49.7924331,11.4880303 L44.3420818,11.4880303 C44.4829804,11.1535175 44.6722642,10.8285003 44.9110682,10.5135211 C45.1388047,10.2164478 45.3915142,9.9562712 45.6676358,9.73014275 Z M44.684098,14.6302389 L52.4758074,14.6302389 C51.9464088,14.9331453 51.4082128,15.1756873 50.8607939,15.3546096 C50.0276047,15.6189913 49.116375,15.7517926 48.1271047,15.7521996 C46.4817264,15.7521996 45.3484358,15.3961185 44.7283682,14.6839563 C44.712902,14.6663218 44.6989966,14.6481447 44.684098,14.6302389 Z M56.7206595,3.17317755 C57.4758081,3.2868522 58.0938892,3.47662646 58.574477,3.74141514 C58.8010784,3.86675568 58.9974568,3.99901436 59.1654568,4.1376486 L48.376423,4.1376486 C48.3896189,4.13073045 48.4021054,4.12340535 48.4154432,4.11648721 C49.2142946,3.7070957 50.1106257,3.41938219 51.1045784,3.25293972 C52.0998081,3.0790365 53.1082338,2.99208489 54.1308486,2.99113534 C55.1114635,2.99113534 55.9741662,3.05177086 56.7206595,3.17317755 Z M58.3240095,14.6302389 C58.3919757,14.8360199 58.5196784,15.0131787 58.7093878,15.1611728 L58.6554689,15.399781 L53.2692527,15.399781 L53.2878405,14.6302389 L58.3240095,14.6302389 Z" id="Combined-Shape"></path>
                </g>
            </g>
        </g>
    </g>
</svg>