<?xml version="1.0" encoding="UTF-8"?>
<svg width="20px" height="20px" viewBox="0 0 20 20" version="1.1" xmlns="http://www.w3.org/2000/svg" xmlns:xlink="http://www.w3.org/1999/xlink">
    <!-- Generator: sketchtool 54 (76480) - https://sketchapp.com -->
    <title>BF4BD098-17D6-4AA9-A602-612A0350F102</title>
    <desc>Created with sketchtool.</desc>
    <g id="dash" stroke="none" stroke-width="1" fill="none" fill-rule="evenodd" opacity="0.800000012">
        <g id="01.1-home-datapar" transform="translate(-582.000000, -643.000000)" fill="#AAB0BA" fill-rule="nonzero">
            <path d="M601.21875,656.75 C600.787266,656.75 600.4375,656.400234 600.4375,655.96875 L600.4375,647.6875 C600.4375,646.825938 599.736562,646.125 598.875,646.125 L597.859375,646.125 L597.859375,646.90625 C597.859375,647.337734 597.509609,647.6875 597.078125,647.6875 C596.646641,647.6875 596.296875,647.337734 596.296875,646.90625 L596.296875,646.125 L592.742188,646.125 L592.742188,646.90625 C592.742188,647.337734 592.392422,647.6875 591.960938,647.6875 C591.529453,647.6875 591.179688,647.337734 591.179688,646.90625 L591.179688,646.125 L587.664062,646.125 L587.664062,646.90625 C587.664062,647.337734 587.314297,647.6875 586.882812,647.6875 C586.451328,647.6875 586.101562,647.337734 586.101562,646.90625 L586.101562,646.125 L585.125,646.125 C584.263438,646.125 583.5625,646.825938 583.5625,647.6875 L583.5625,659.875 C583.5625,660.736562 584.263438,661.4375 585.125,661.4375 L598.875,661.4375 C599.736562,661.4375 600.4375,660.736562 600.4375,659.875 C600.4375,659.443516 600.787266,659.09375 601.21875,659.09375 C601.650234,659.09375 602,659.443516 602,659.875 C602,661.598125 600.598125,663 598.875,663 L585.125,663 C583.401875,663 582,661.598125 582,659.875 L582,647.6875 C582,645.964375 583.401875,644.5625 585.125,644.5625 L586.101562,644.5625 L586.101562,643.78125 C586.101562,643.349766 586.451328,643 586.882812,643 C587.314297,643 587.664062,643.349766 587.664062,643.78125 L587.664062,644.5625 L591.179688,644.5625 L591.179688,643.78125 C591.179688,643.349766 591.529453,643 591.960938,643 C592.392422,643 592.742188,643.349766 592.742188,643.78125 L592.742188,644.5625 L596.296875,644.5625 L596.296875,643.78125 C596.296875,643.349766 596.646641,643 597.078125,643 C597.509609,643 597.859375,643.349766 597.859375,643.78125 L597.859375,644.5625 L598.875,644.5625 C600.598125,644.5625 602,645.964375 602,647.6875 L602,655.96875 C602,656.400234 601.650234,656.75 601.21875,656.75 Z M586.882812,651.984375 C586.45134,651.984375 586.101562,651.634597 586.101562,651.203125 C586.101562,650.771653 586.45134,650.421875 586.882812,650.421875 C587.314285,650.421875 587.664062,650.771653 587.664062,651.203125 C587.664062,651.634597 587.314285,651.984375 586.882812,651.984375 Z M593.679688,651.984375 C593.248215,651.984375 592.898438,651.634597 592.898438,651.203125 C592.898438,650.771653 593.248215,650.421875 593.679688,650.421875 C594.11116,650.421875 594.460938,650.771653 594.460938,651.203125 C594.460938,651.634597 594.11116,651.984375 593.679688,651.984375 Z M597.078125,651.984375 C596.646653,651.984375 596.296875,651.634597 596.296875,651.203125 C596.296875,650.771653 596.646653,650.421875 597.078125,650.421875 C597.509597,650.421875 597.859375,650.771653 597.859375,651.203125 C597.859375,651.634597 597.509597,651.984375 597.078125,651.984375 Z M586.882812,655.382812 C586.45134,655.382812 586.101562,655.033035 586.101562,654.601562 C586.101562,654.17009 586.45134,653.820312 586.882812,653.820312 C587.314285,653.820312 587.664062,654.17009 587.664062,654.601562 C587.664062,655.033035 587.314285,655.382812 586.882812,655.382812 Z M586.882812,658.78125 C586.45134,658.78125 586.101562,658.431472 586.101562,658 C586.101562,657.568528 586.45134,657.21875 586.882812,657.21875 C587.314285,657.21875 587.664062,657.568528 587.664062,658 C587.664062,658.431472 587.314285,658.78125 586.882812,658.78125 Z M590.28125,651.984375 C589.849778,651.984375 589.5,651.634597 589.5,651.203125 C589.5,650.771653 589.849778,650.421875 590.28125,650.421875 C590.712722,650.421875 591.0625,650.771653 591.0625,651.203125 C591.0625,651.634597 590.712722,651.984375 590.28125,651.984375 Z M590.28125,655.382812 C589.849778,655.382812 589.5,655.033035 589.5,654.601562 C589.5,654.17009 589.849778,653.820312 590.28125,653.820312 C590.712722,653.820312 591.0625,654.17009 591.0625,654.601562 C591.0625,655.033035 590.712722,655.382812 590.28125,655.382812 Z M590.28125,658.78125 C589.849778,658.78125 589.5,658.431472 589.5,658 C589.5,657.568528 589.849778,657.21875 590.28125,657.21875 C590.712722,657.21875 591.0625,657.568528 591.0625,658 C591.0625,658.431472 590.712722,658.78125 590.28125,658.78125 Z M593.679688,655.382812 C593.248215,655.382812 592.898438,655.033035 592.898438,654.601562 C592.898438,654.17009 593.248215,653.820312 593.679688,653.820312 C594.11116,653.820312 594.460938,654.17009 594.460938,654.601562 C594.460938,655.033035 594.11116,655.382812 593.679688,655.382812 Z M597.078125,655.382812 C596.646653,655.382812 596.296875,655.033035 596.296875,654.601562 C596.296875,654.17009 596.646653,653.820312 597.078125,653.820312 C597.509597,653.820312 597.859375,654.17009 597.859375,654.601562 C597.859375,655.033035 597.509597,655.382812 597.078125,655.382812 Z M593.679688,658.78125 C593.248215,658.78125 592.898438,658.431472 592.898438,658 C592.898438,657.568528 593.248215,657.21875 593.679688,657.21875 C594.11116,657.21875 594.460938,657.568528 594.460938,658 C594.460938,658.431472 594.11116,658.78125 593.679688,658.78125 Z" id="icon-calendar-grey"></path>
        </g>
    </g>
</svg>