<?xml version="1.0" encoding="UTF-8"?>
<svg width="14px" height="14px" viewBox="0 0 14 14" version="1.1" xmlns="http://www.w3.org/2000/svg" xmlns:xlink="http://www.w3.org/1999/xlink">
    <!-- Generator: sketchtool 54 (76480) - https://sketchapp.com -->
    <title>CCB3BFE7-FEA2-48CB-A6A0-D9E58A6199DD</title>
    <desc>Created with sketchtool.</desc>
    <g id="dash" stroke="none" stroke-width="1" fill="none" fill-rule="evenodd" opacity="0.699999988">
        <g id="01.1-home-datapar" transform="translate(-1129.000000, -25.000000)" fill="#FFFFFF" fill-rule="nonzero">
            <g id="header">
                <g id="Group" transform="translate(790.000000, 14.000000)">
                    <path d="M349.623218,20.6332681 L352.794975,23.8050252 C353.068342,24.0783922 353.068342,24.5216077 352.794975,24.7949747 C352.521608,25.0683418 352.078392,25.0683418 351.805025,24.7949747 L348.633268,21.6232176 C347.620163,22.4228074 346.340809,22.9 344.95,22.9 C341.663906,22.9 339,20.2360943 339,16.95 C339,13.6639057 341.663906,11 344.95,11 C348.236094,11 350.9,13.6639057 350.9,16.95 C350.9,18.3408088 350.422807,19.6201632 349.623218,20.6332681 Z M348.211831,20.1222203 C349.009032,19.3026422 349.5,18.183657 349.5,16.95 C349.5,14.4371044 347.462896,12.4 344.95,12.4 C342.437104,12.4 340.4,14.4371044 340.4,16.95 C340.4,19.4628956 342.437104,21.5 344.95,21.5 C346.183657,21.5 347.302642,21.009032 348.12222,20.2118312 C348.135654,20.195749 348.149923,20.1801279 348.165025,20.1650252 C348.180128,20.1499226 348.195749,20.1356543 348.211831,20.1222203 Z" id="icon-search"></path>
                </g>
            </g>
        </g>
    </g>
</svg>