<?xml version="1.0" encoding="UTF-8"?>
<svg width="20px" height="18px" viewBox="0 0 20 18" version="1.1" xmlns="http://www.w3.org/2000/svg" xmlns:xlink="http://www.w3.org/1999/xlink">
    <!-- Generator: sketchtool 54 (76480) - https://sketchapp.com -->
    <title>95A5FF93-E8B4-4621-A491-29A6E4A8CA2F</title>
    <desc>Created with sketchtool.</desc>
    <g id="dash" stroke="none" stroke-width="1" fill="none" fill-rule="evenodd">
        <g id="01.1-icons-home" transform="translate(-186.000000, -117.000000)" fill="#466FBA" fill-rule="nonzero">
            <path d="M202.875,117 L193.851562,117 C192.995195,117 192.168047,117.321012 191.579883,117.881156 L187.187734,121.825863 C186.464648,122.34143 186,123.138422 186,124.03125 L186,132.1875 C186,133.738313 187.401875,135 189.125,135 L198.148438,135 C199.037031,135 199.840195,134.664469 200.409727,134.126789 C200.413828,134.123273 200.41793,134.119723 200.421992,134.116102 L205.086992,129.955395 L205.091055,129.951738 C205.677227,129.421195 206,128.716945 206,127.96875 L206,119.8125 C206,118.261687 204.598125,117 202.875,117 Z M192.658421,118.451934 L192.677153,118.435206 C192.980727,118.154572 193.39241,118 193.836321,118 L203,118 L199.53,121 C199.125738,120.838249 198.675835,120.747945 198.202,120.747945 L190,120.747945 L192.658421,118.451934 Z M205,127.547477 C205,127.90932 204.838146,128.249898 204.544187,128.506814 L201.8125,130.851127 L201.8125,129.592173 C201.8125,129.215745 201.460144,128.910608 201.025463,128.910608 C200.590782,128.910608 200.238426,129.215745 200.238426,129.592173 L200.238426,131.636869 C200.238426,132.3885 199.532296,133 198.664352,133 L189.574074,133 C188.70613,133 188,132.3885 188,131.636869 L188,123.730711 C188,122.979081 188.70613,122.36758 189.574074,122.36758 L198.664352,122.36758 C199.532296,122.36758 200.238426,122.979081 200.238426,123.730711 L200.238426,126.184346 C200.238426,126.560775 200.590782,126.865912 201.025463,126.865912 C201.460144,126.865912 201.8125,126.560775 201.8125,126.184346 L201.8125,123.730711 C201.8125,123.129775 201.586817,122.573652 201.204986,122.122524 L204.814613,119 C204.932866,119.191247 205,119.409621 205,119.641319 L205,127.547477 Z" id="icon-cube-active"></path>
        </g>
    </g>
</svg>