<?xml version="1.0" encoding="UTF-8"?>
<svg width="40px" height="36px" viewBox="0 0 40 36" version="1.1" xmlns="http://www.w3.org/2000/svg" xmlns:xlink="http://www.w3.org/1999/xlink">
    <!-- Generator: sketchtool 54 (76480) - https://sketchapp.com -->
    <title>6FB75ACB-0216-47E8-894C-A086BC065C46</title>
    <desc>Created with sketchtool.</desc>
    <g id="dash" stroke="none" stroke-width="1" fill="none" fill-rule="evenodd">
        <g id="01.1-home-datapar" transform="translate(-16.000000, -14.000000)">
            <g id="header">
                <g id="icon-menu" transform="translate(16.000000, 14.000000)">
                    <rect id="Rectangle" fill="#385FA6" x="0" y="0" width="40" height="36" rx="6"></rect>
                    <path d="M12.7078435,13.2537313 C12.3169123,13.2537313 12,12.973074 12,12.6268657 C12,12.2806573 12.3169123,12 12.7078435,12 L28.2921565,12 C28.6830877,12 29,12.2806573 29,12.6268657 C29,12.973074 28.6830877,13.2537313 28.2921565,13.2537313 L12.7078435,13.2537313 Z M12.7078435,18.6268657 C12.3169123,18.6268657 12,18.3462084 12,18 C12,17.6537916 12.3169123,17.3731343 12.7078435,17.3731343 L28.2921565,17.3731343 C28.6830877,17.3731343 29,17.6537916 29,18 C29,18.3462084 28.6830877,18.6268657 28.2921565,18.6268657 L12.7078435,18.6268657 Z M12.7078435,24 C12.3169123,24 12,23.7193427 12,23.3731343 C12,23.026926 12.3169123,22.7462687 12.7078435,22.7462687 L28.2921565,22.7462687 C28.6830877,22.7462687 29,23.026926 29,23.3731343 C29,23.7193427 28.6830877,24 28.2921565,24 L12.7078435,24 Z" id="Combined-Shape" fill="#FFFFFF" fill-rule="nonzero"></path>
                </g>
            </g>
        </g>
    </g>
</svg>