<?xml version="1.0" encoding="UTF-8"?>
<svg width="21px" height="21px" viewBox="0 0 21 21" version="1.1" xmlns="http://www.w3.org/2000/svg" xmlns:xlink="http://www.w3.org/1999/xlink">
    <!-- Generator: sketchtool 54 (76480) - https://sketchapp.com -->
    <title>C61B014A-AE8B-4C05-9217-8E7718A1A751</title>
    <desc>Created with sketchtool.</desc>
    <g id="dash" stroke="none" stroke-width="1" fill="none" fill-rule="evenodd">
        <g id="01.1-home-datapar" transform="translate(-327.000000, -97.000000)" fill-rule="nonzero">
            <g id="icon-clipboard" transform="translate(327.000000, 97.000000)">
                <path d="M19.2397661,15.1871345 C19.6919415,15.1871345 20.0584795,14.8205965 20.0584795,14.3684211 L20.0584795,10.6023392 C20.0584795,9.24802339 18.956655,8.14619883 17.6023392,8.14619883 L16.005848,8.14619883 L16.005848,4.9122807 C16.005848,3.10652632 14.5367485,1.6374269 12.7309942,1.6374269 L10.7851988,1.6374269 C10.4683977,0.665245614 9.56269591,-1.77635684e-15 8.52718713,-1.77635684e-15 L7.47866082,-1.77635684e-15 C6.44315205,-1.77635684e-15 5.53745029,0.665245614 5.22064912,1.6374269 L3.2748538,1.6374269 C1.46909942,1.6374269 -1.98951966e-13,3.10652632 -1.98951966e-13,4.9122807 L-1.98951966e-13,17.6842105 C-1.98951966e-13,19.4899649 1.46909942,20.9590643 3.2748538,20.9590643 L6.87719298,20.9590643 C7.32936842,20.9590643 7.69590643,20.5925263 7.69590643,20.1403509 C7.69590643,19.6881754 7.32936842,19.3216374 6.87719298,19.3216374 L3.2748538,19.3216374 C2.37197661,19.3216374 1.6374269,18.5870877 1.6374269,17.6842105 L1.6374269,4.9122807 C1.6374269,4.00940351 2.37197661,3.2748538 3.2748538,3.2748538 L3.35672515,3.2748538 L3.35672515,5.69005848 C3.35672515,6.14223392 3.72326316,6.50877193 4.1754386,6.50877193 L11.9122807,6.50877193 C12.3644561,6.50877193 12.7309942,6.14223392 12.7309942,5.69005848 L12.7309942,3.2748538 C13.6338713,3.2748538 14.3684211,4.00940351 14.3684211,4.9122807 L14.3684211,8.14619883 L11.7073158,8.14619883 C10.3532047,8.14619883 9.25146199,9.24790058 9.25146199,10.6020526 L9.25146199,18.5032515 C9.25146199,19.8574035 10.3532865,20.9591053 11.7080117,20.9591053 L17.6023392,20.9560351 C18.956655,20.9560351 20.0584795,19.8543333 20.0584795,18.5002222 C20.0584795,18.0480468 19.6919415,17.6815088 19.2397661,17.6815088 C18.7875906,17.6815088 18.4210526,18.0480468 18.4210526,18.5002222 C18.4210526,18.9514971 18.0537778,19.3186082 17.6019298,19.3186082 L11.7076023,19.3216374 C11.2561637,19.3216374 10.8888889,18.9544854 10.8888889,18.5032105 L10.8888889,10.6020526 C10.8888889,10.1507778 11.2560409,9.78362573 11.7073158,9.78362573 L17.6023392,9.78362573 C18.0537778,9.78362573 18.4210526,10.1509006 18.4210526,10.6023392 L18.4210526,14.3684211 C18.4210526,14.8205965 18.7876316,15.1871345 19.2397661,15.1871345 Z M11.0935673,4.87134503 L4.99415205,4.87134503 L4.99415205,3.2748538 L5.85380117,3.2748538 C6.22946784,3.2748538 6.55695322,3.01916959 6.64807602,2.6547193 L6.76261404,2.19648538 C6.84489474,1.86732164 7.13934503,1.6374269 7.47866082,1.6374269 L8.52718713,1.6374269 C8.86650292,1.6374269 9.16091228,1.86732164 9.24323392,2.19648538 L9.35777193,2.6547193 C9.44889474,3.01916959 9.77638012,3.2748538 10.1520468,3.2748538 L11.0935673,3.2748538 L11.0935673,4.87134503 Z" id="Combined-Shape" fill="#466FBA"></path>
                <path d="M15.8476874,11.4545455 L13.2278044,11.4545455 C12.7756289,11.4545455 12.4090909,11.8210835 12.4090909,12.2732589 C12.4090909,12.7254343 12.7756289,13.0919724 13.2278044,13.0919724 L15.8476874,13.0919724 C16.2998629,13.0919724 16.6664009,12.7254343 16.6664009,12.2732589 C16.6664009,11.8210835 16.2999038,11.4545455 15.8476874,11.4545455 Z" id="Path" fill="#FAB32E"></path>
                <path d="M15.8476874,14.3181818 L13.2278044,14.3181818 C12.7756289,14.3181818 12.4090909,14.6847198 12.4090909,15.1368953 C12.4090909,15.5890707 12.7756289,15.9556087 13.2278044,15.9556087 L15.8476874,15.9556087 C16.2998629,15.9556087 16.6664009,15.5890707 16.6664009,15.1368953 C16.6664009,14.6847198 16.2999038,14.3181818 15.8476874,14.3181818 Z" id="Path" fill="#FAB32E"></path>
            </g>
        </g>
    </g>
</svg>