<?xml version="1.0" encoding="UTF-8"?>
<svg width="18px" height="18px" viewBox="0 0 18 18" version="1.1" xmlns="http://www.w3.org/2000/svg" xmlns:xlink="http://www.w3.org/1999/xlink">
    <!-- Generator: sketchtool 54 (76480) - https://sketchapp.com -->
    <title>BC4CF382-FCE1-472E-BA88-29B9FB41B210</title>
    <desc>Created with sketchtool.</desc>
    <g id="Symbols" stroke="none" stroke-width="1" fill="none" fill-rule="evenodd" opacity="0.699999988">
        <g id="input/text-busca" transform="translate(-277.000000, -19.000000)" fill="#868F9D" fill-rule="nonzero">
            <path d="M290.658423,31.3856304 L294.736396,35.4636039 C295.087868,35.8150757 295.087868,36.3849242 294.736396,36.7363961 C294.384924,37.087868 293.815076,37.087868 293.463604,36.7363961 L289.38563,32.6584227 C288.083067,33.6864667 286.438183,34.3 284.65,34.3 C280.425022,34.3 277,30.8749783 277,26.65 C277,22.4250217 280.425022,19 284.65,19 C288.874978,19 292.3,22.4250217 292.3,26.65 C292.3,28.4381827 291.686467,30.083067 290.658423,31.3856304 Z M288.843783,30.728569 C289.868755,29.6748256 290.5,28.2361304 290.5,26.65 C290.5,23.4191342 287.880866,20.8 284.65,20.8 C281.419134,20.8 278.8,23.4191342 278.8,26.65 C278.8,29.8808658 281.419134,32.5 284.65,32.5 C286.23613,32.5 287.674826,31.8687554 288.728569,30.843783 C288.745841,30.8231059 288.764186,30.8030216 288.783604,30.7836039 C288.803022,30.7641862 288.823106,30.7458412 288.843783,30.728569 Z" id="icon-search"></path>
        </g>
    </g>
</svg>