<?xml version="1.0" encoding="UTF-8"?>
<svg width="20px" height="21px" viewBox="0 0 20 21" version="1.1" xmlns="http://www.w3.org/2000/svg" xmlns:xlink="http://www.w3.org/1999/xlink">
    <!-- Generator: sketchtool 54 (76480) - https://sketchapp.com -->
    <title>05E363E3-0099-4F3B-A8FF-5D46858E1215</title>
    <desc>Created with sketchtool.</desc>
    <g id="dash" stroke="none" stroke-width="1" fill="none" fill-rule="evenodd">
        <g id="01.1-icons-home" transform="translate(-186.000000, -444.000000)" fill-rule="nonzero">
            <g id="icon-clipboard-active" transform="translate(186.000000, 444.000000)">
                <path d="M19.1836735,15.2167672 C19.6345306,15.2167672 20,14.849514 20,14.3964563 L20,10.6230261 C20,9.26606784 18.9013878,8.16209343 17.5510204,8.16209343 L15.9591837,8.16209343 L15.9591837,4.92186539 C15.9591837,3.11258767 14.4943673,1.6406218 12.6938776,1.6406218 L10.7537551,1.6406218 C10.4378776,0.66654362 9.53481633,-1.77635684e-15 8.50232653,-1.77635684e-15 L7.45685714,-1.77635684e-15 C6.42436735,-1.77635684e-15 5.52130612,0.66654362 5.20542857,1.6406218 L3.26530612,1.6406218 C1.46481633,1.6406218 -9.9475983e-14,3.11258767 -9.9475983e-14,4.92186539 L-9.9475983e-14,17.7187154 C-9.9475983e-14,19.5279931 1.46481633,20.999959 3.26530612,20.999959 L6.85714286,20.999959 C7.308,20.999959 7.67346939,20.6327058 7.67346939,20.1796481 C7.67346939,19.7265904 7.308,19.3593372 6.85714286,19.3593372 L3.26530612,19.3593372 C2.36506122,19.3593372 1.63265306,18.6233543 1.63265306,17.7187154 L1.63265306,4.92186539 C1.63265306,4.01722653 2.36506122,3.28124359 3.26530612,3.28124359 L3.34693878,3.28124359 L3.34693878,5.70116074 C3.34693878,6.15421845 3.71240816,6.52147164 4.16326531,6.52147164 L11.877551,6.52147164 C12.3284082,6.52147164 12.6938776,6.15421845 12.6938776,5.70116074 L12.6938776,3.28124359 C13.5941224,3.28124359 14.3265306,4.01722653 14.3265306,4.92186539 L14.3265306,8.16209343 L11.6731837,8.16209343 C10.3230204,8.16209343 9.2244898,9.26594479 9.2244898,10.622739 L9.2244898,18.5393544 C9.2244898,19.8961486 10.323102,21 11.6738776,21 L17.5510204,20.9969238 C18.9013878,20.9969238 20,19.8930725 20,18.5363193 C20,18.0832616 19.6345306,17.7160084 19.1836735,17.7160084 C18.7328163,17.7160084 18.3673469,18.0832616 18.3673469,18.5363193 C18.3673469,18.9884746 18.0011429,19.356302 17.5506122,19.356302 L11.6734694,19.3593372 C11.2233469,19.3593372 10.8571429,18.9914688 10.8571429,18.5393134 L10.8571429,10.622739 C10.8571429,10.1705837 11.2232245,9.80271523 11.6731837,9.80271523 L17.5510204,9.80271523 C18.0011429,9.80271523 18.3673469,10.1707067 18.3673469,10.6230261 L18.3673469,14.3964563 C18.3673469,14.849514 18.7328571,15.2167672 19.1836735,15.2167672 Z M11.0612245,4.88084984 L4.97959184,4.88084984 L4.97959184,3.28124359 L5.83673469,3.28124359 C6.21130612,3.28124359 6.53783673,3.0250605 6.62869388,2.6598991 L6.74289796,2.20077109 C6.82493878,1.8709651 7.11853061,1.6406218 7.45685714,1.6406218 L8.50232653,1.6406218 C8.84065306,1.6406218 9.13420408,1.8709651 9.21628571,2.20077109 L9.3304898,2.6598991 C9.42134694,3.0250605 9.74787755,3.28124359 10.122449,3.28124359 L11.0612245,3.28124359 L11.0612245,4.88084984 Z" id="Combined-Shape" fill="#466FBA"></path>
                <path d="M16.2307692,11 L13.7692308,11 C13.3443846,11 13,11.4477 13,12 C13,12.5523 13.3443846,13 13.7692308,13 L16.2307692,13 C16.6556154,13 17,12.5523 17,12 C17,11.4477 16.6556538,11 16.2307692,11 Z" id="Path" fill="#FAB32E"></path>
                <path d="M16.2307692,14 L13.7692308,14 C13.3443846,14 13,14.4477 13,15 C13,15.5523 13.3443846,16 13.7692308,16 L16.2307692,16 C16.6556154,16 17,15.5523 17,15 C17,14.4477 16.6556538,14 16.2307692,14 Z" id="Path" fill="#FAB32E"></path>
            </g>
        </g>
    </g>
</svg>