<?xml version="1.0" encoding="UTF-8"?>
<svg width="22px" height="22px" viewBox="0 0 22 22" version="1.1" xmlns="http://www.w3.org/2000/svg" xmlns:xlink="http://www.w3.org/1999/xlink">
    <!-- Generator: sketchtool 54 (76480) - https://sketchapp.com -->
    <title>65E14F31-2195-4644-8809-860D7C7B2BE6</title>
    <desc>Created with sketchtool.</desc>
    <g id="dash" stroke="none" stroke-width="1" fill="none" fill-rule="evenodd">
        <g id="01.1-icons-home" transform="translate(-185.000000, -560.000000)" fill="#466FBA" fill-rule="nonzero">
            <path d="M203.610169,560 C205.479322,560 207,561.520678 207,563.389831 L207,566.610169 C207,568.479322 205.479322,570 203.610169,570 L200.389831,570 C198.520678,570 197,568.479322 197,566.610169 L197,563.389831 C197,561.520678 198.520678,560 200.389831,560 L203.610169,560 Z M205.305085,566.610169 L205.305085,563.389831 C205.305085,562.455254 204.544746,561.694915 203.610169,561.694915 L200.389831,561.694915 C199.455254,561.694915 198.694915,562.455254 198.694915,563.389831 L198.694915,566.610169 C198.694915,567.544746 199.455254,568.305085 200.389831,568.305085 L203.610169,568.305085 C204.544746,568.305085 205.305085,567.544746 205.305085,566.610169 Z M191.610169,560 C193.479322,560 195,561.520678 195,563.389831 L195,566.610169 C195,568.479322 193.479322,570 191.610169,570 L188.389831,570 C186.520678,570 185,568.479322 185,566.610169 L185,563.389831 C185,561.520678 186.520678,560 188.389831,560 L191.610169,560 Z M193.305085,566.610169 L193.305085,563.389831 C193.305085,562.455254 192.544746,561.694915 191.610169,561.694915 L188.389831,561.694915 C187.455254,561.694915 186.694915,562.455254 186.694915,563.389831 L186.694915,566.610169 C186.694915,567.544746 187.455254,568.305085 188.389831,568.305085 L191.610169,568.305085 C192.544746,568.305085 193.305085,567.544746 193.305085,566.610169 Z M191.610169,572 C193.479322,572 195,573.520678 195,575.389831 L195,578.610169 C195,580.479322 193.479322,582 191.610169,582 L188.389831,582 C186.520678,582 185,580.479322 185,578.610169 L185,575.389831 C185,573.520678 186.520678,572 188.389831,572 L191.610169,572 Z M193.305085,578.610169 L193.305085,575.389831 C193.305085,574.455254 192.544746,573.694915 191.610169,573.694915 L188.389831,573.694915 C187.455254,573.694915 186.694915,574.455254 186.694915,575.389831 L186.694915,578.610169 C186.694915,579.544746 187.455254,580.305085 188.389831,580.305085 L191.610169,580.305085 C192.544746,580.305085 193.305085,579.544746 193.305085,578.610169 Z M206.152542,577.762712 C206.620593,577.762712 207,578.142119 207,578.610169 C207,580.479322 205.479322,582 203.610169,582 L200.389831,582 C198.520678,582 197,580.479322 197,578.610169 L197,575.389831 C197,573.520678 198.520678,572 200.389831,572 L203.610169,572 C204.957627,572 206.177203,572.797839 206.717161,574.032627 C206.904661,574.461441 206.709068,574.961102 206.280212,575.148644 C205.851398,575.336102 205.351695,575.140551 205.164195,574.711695 C204.89411,574.094025 204.28411,573.694915 203.610169,573.694915 L200.389831,573.694915 C199.455254,573.694915 198.694915,574.455254 198.694915,575.389831 L198.694915,578.610169 C198.694915,579.544746 199.455254,580.305085 200.389831,580.305085 L203.610169,580.305085 C204.544746,580.305085 205.305085,579.544746 205.305085,578.610169 C205.305085,578.142119 205.684492,577.762712 206.152542,577.762712 Z" id="icon-window-active"></path>
        </g>
    </g>
</svg>