<svg xmlns="http://www.w3.org/2000/svg" width="16" height="15.279" viewBox="0 0 16 15.279">
  <g id="_032-star" data-name="032-star" transform="translate(0 -11.531)">
    <g id="Grupo_194" data-name="Grupo 194" transform="translate(0 11.531)">
      <path id="Caminho_95" data-name="Caminho 95" d="M15.968,17.324a.646.646,0,0,0-.521-.44L10.7,16.19l-2.122-4.3a.646.646,0,0,0-1.159,0L5.3,16.19l-4.746.694a.646.646,0,0,0-.357,1.1L3.629,21.33l-.81,4.724a.646.646,0,0,0,.938.681L8,24.5l4.244,2.232a.646.646,0,0,0,.938-.681l-.81-4.724L15.8,17.986A.646.646,0,0,0,15.968,17.324Zm-4.743,3.318a.646.646,0,0,0-.186.572l.646,3.768L8.3,23.2a.646.646,0,0,0-.6,0l-3.385,1.78.646-3.768a.646.646,0,0,0-.186-.572L2.035,17.974l3.786-.553a.646.646,0,0,0,.486-.353L8,13.638l1.693,3.429a.646.646,0,0,0,.486.353l3.786.553Z" transform="translate(0 -11.531)" fill="#707070"/>
    </g>
  </g>
</svg>
