<svg xmlns="http://www.w3.org/2000/svg" width="16" height="16" viewBox="0 0 16 16">
  <path id="União_15" data-name="União 15" d="M8,16A8,8,0,0,1,2.343,2.343,8,8,0,1,1,13.657,13.657,7.948,7.948,0,0,1,8,16ZM6.53,14.545a11.891,11.891,0,0,1-2.088-5.9H1.324A6.723,6.723,0,0,0,6.53,14.545Zm2.94,0a6.723,6.723,0,0,0,5.207-5.9H11.558A11.893,11.893,0,0,1,9.47,14.545ZM8,14.358a10.6,10.6,0,0,0,2.261-5.711H5.739A10.6,10.6,0,0,0,8,14.358Zm6.677-7a6.723,6.723,0,0,0-5.207-5.9,11.891,11.891,0,0,1,2.088,5.9Zm-4.415,0A10.6,10.6,0,0,0,8,1.642,10.6,10.6,0,0,0,5.739,7.354Zm-5.819,0a11.891,11.891,0,0,1,2.088-5.9,6.723,6.723,0,0,0-5.207,5.9Z" fill="#707070"/>
</svg>
