<svg xmlns="http://www.w3.org/2000/svg" width="16" height="13.058" viewBox="0 0 16 13.058">
  <path id="União_17" data-name="União 17" d="M2.117,13.058A2.119,2.119,0,0,1,0,10.941V2.122s0-.008,0-.013A2.119,2.119,0,0,1,2.117,0H13.883A2.119,2.119,0,0,1,16,2.11s0,.008,0,.012v8.82a2.119,2.119,0,0,1-2.117,2.117Zm-.824-2.117a.825.825,0,0,0,.824.824H13.883a.825.825,0,0,0,.824-.824V3.358L8.371,7.794a.646.646,0,0,1-.741,0L1.293,3.358ZM8,6.476l6.652-4.656a.826.826,0,0,0-.769-.527H2.117a.826.826,0,0,0-.769.527Z" transform="translate(0)" fill="#707070"/>
</svg>
