<svg xmlns="http://www.w3.org/2000/svg" width="15.978" height="24" viewBox="0 0 15.978 24">
  <path id="União_13" data-name="União 13" d="M3.978,24a.969.969,0,0,1,0-1.939H7.019V19.93A8,8,0,0,1,0,12V9.994a.969.969,0,0,1,1.939,0V12a6.05,6.05,0,0,0,12.1,0V9.994a.969.969,0,0,1,1.939,0V12a8,8,0,0,1-7.019,7.93v2.131H12A.969.969,0,0,1,12,24Zm.033-12V3.978a3.978,3.978,0,1,1,7.956,0V12a3.978,3.978,0,1,1-7.956,0ZM5.95,3.978V12a2.039,2.039,0,1,0,4.078,0V3.978a2.039,2.039,0,1,0-4.078,0Z" fill="#fff"/>
</svg>
