<svg xmlns="http://www.w3.org/2000/svg" width="15.965" height="16" viewBox="0 0 15.965 16">
  <path id="União_23" data-name="União 23" d="M2842.672,15.354v-.815c0-1.859-3.063-3.429-6.69-3.429s-6.69,1.57-6.69,3.429v.815a.646.646,0,1,1-1.292,0v-.815c0-2.648,3.506-4.722,7.982-4.722s7.982,2.074,7.982,4.722v.815a.646.646,0,1,1-1.292,0Zm-8.982-8.309a3.907,3.907,0,0,1,2.9-7,3.907,3.907,0,0,1,0,7.729,3.957,3.957,0,0,1-.581.043A3.877,3.877,0,0,1,2833.69,7.045Zm1.944-5.724a2.612,2.612,0,1,0,.383-.028A2.617,2.617,0,0,0,2835.634,1.321Z" transform="translate(-2828)" fill="#707070"/>
</svg>
