<svg xmlns="http://www.w3.org/2000/svg" width="19.429" height="24" viewBox="0 0 19.429 24">
  <path id="icon-notificacao" d="M19.381,17.855a.919.919,0,0,0-1.07-.749.937.937,0,0,0-.733,1.094.942.942,0,0,1-.2.774.9.9,0,0,1-.705.338H2.752a.9.9,0,0,1-.705-.338.942.942,0,0,1-.2-.774,9.8,9.8,0,0,1,1.288-3.255,7.528,7.528,0,0,0,1.246-3.977V9.562A5.4,5.4,0,0,1,9.627,4.126H9.8a5.394,5.394,0,0,1,5.225,5.437v1.406a6.744,6.744,0,0,0,.921,3.353.914.914,0,0,0,.808.491.9.9,0,0,0,.435-.113.949.949,0,0,0,.37-1.271,4.851,4.851,0,0,1-.7-2.459V9.563A7.36,7.36,0,0,0,14.8,4.432a7.029,7.029,0,0,0-4.178-2.125V.937a.917.917,0,1,0-1.834,0V2.311A7.292,7.292,0,0,0,2.551,9.562v1.406a5.727,5.727,0,0,1-1.006,3.047,11.534,11.534,0,0,0-1.5,3.84,2.851,2.851,0,0,0,.587,2.317,2.72,2.72,0,0,0,2.117,1.017H6.971a2.753,2.753,0,1,0,5.5,0h4.2a2.72,2.72,0,0,0,2.117-1.017A2.846,2.846,0,0,0,19.381,17.855Zm-9.657,4.27a.929.929,0,0,1-.918-.937H10.64A.928.928,0,0,1,9.723,22.125Z" transform="translate(0)" fill="#fff"/>
</svg>
