<svg xmlns="http://www.w3.org/2000/svg" width="16" height="16" viewBox="0 0 16 16">
  <path id="União_22" data-name="União 22" d="M.625,16A.625.625,0,0,1,0,15.375V8a8,8,0,1,1,8,8ZM1.25,8v6.75H8A6.75,6.75,0,1,0,1.25,8Zm5.677,3.564a.837.837,0,0,1,.828-.839.839.839,0,1,1,0,1.677A.837.837,0,0,1,6.927,11.564Zm.218-2.32a1.994,1.994,0,0,1,.73-1.656c.359-.3.969-.643.969-1.231,0-.5-.436-.741-.98-.741-1.111,0-.871.839-1.46.839a.625.625,0,0,1-.654-.621c0-.588.675-1.46,2.146-1.46,1.394,0,2.32.773,2.32,1.8A2.788,2.788,0,0,1,9,8.166a1.368,1.368,0,0,0-.61,1.362c0,.207-.109.447-.643.447C7.3,9.974,7.145,9.811,7.145,9.244Z" fill="#707070"/>
</svg>
