<svg xmlns="http://www.w3.org/2000/svg" width="16" height="14.529" viewBox="0 0 16 14.529">
  <path id="União_26" data-name="União 26" d="M2830.117,16A2.119,2.119,0,0,1,2828,13.883V11.677a.646.646,0,1,1,1.292,0v2.206a.825.825,0,0,0,.824.824h10.3a.825.825,0,0,0,.824-.824V11.677a.646.646,0,0,1,1.293,0v2.206A2.119,2.119,0,0,1,2840.412,16Zm4.5-5.059V2.207l-1.838,1.838a.646.646,0,1,1-.914-.914L2834.8.2a.647.647,0,0,1,.735-.136h0a.647.647,0,0,1,.184.129l2.941,2.941a.646.646,0,0,1-.914.914l-1.838-1.838v8.735a.646.646,0,0,1-1.293,0Z" transform="translate(16 -2828) rotate(90)" fill="#707070"/>
</svg>
