<svg xmlns="http://www.w3.org/2000/svg" width="16" height="16" viewBox="0 0 16 16">
  <path id="União_16" data-name="União 16" d="M6.07,14.017v-.051a.454.454,0,0,0-.3-.412l-.038-.015a.454.454,0,0,0-.5.089l-.037.037a1.985,1.985,0,0,1-2.8,0l0,0a1.983,1.983,0,0,1,0-2.8l0,0,.037-.037a.455.455,0,0,0,.089-.5l0-.006a.456.456,0,0,0-.418-.277H1.983a1.983,1.983,0,1,1,0-3.967h.051a.454.454,0,0,0,.412-.3c0-.013.01-.025.015-.038a.454.454,0,0,0-.089-.5l-.037-.037a1.984,1.984,0,0,1,1.4-3.387h0a1.97,1.97,0,0,1,1.4.58l.038.038a.455.455,0,0,0,.5.089.649.649,0,0,1,.133-.042.457.457,0,0,0,.2-.379V1.983a1.983,1.983,0,0,1,3.967,0v.06a.456.456,0,0,0,.277.415l.006,0a.455.455,0,0,0,.5-.089l.037-.037a1.97,1.97,0,0,1,1.4-.581h0a1.97,1.97,0,0,1,1.4.58l0,0a1.983,1.983,0,0,1,0,2.8l0,0-.035.035a.455.455,0,0,0-.089.5.647.647,0,0,1,.042.133.457.457,0,0,0,.379.2h.111a1.983,1.983,0,1,1,0,3.967h-.06a.456.456,0,0,0-.415.277l0,.006a.455.455,0,0,0,.089.5l.037.037a1.984,1.984,0,0,1-1.4,3.387h0a1.97,1.97,0,0,1-1.4-.58l-.038-.038a.455.455,0,0,0-.5-.089l-.006,0a.457.457,0,0,0-.277.418v.111a1.983,1.983,0,0,1-3.967,0Zm.167-1.669a1.74,1.74,0,0,1,1.126,1.594c0,.005,0,.01,0,.015v.06a.691.691,0,1,0,1.381,0V13.9a1.758,1.758,0,0,1,2.983-1.251l.005.005.04.04a.687.687,0,0,0,.489.2h0a.692.692,0,0,0,.489-1.18l-.04-.04,0-.005a1.758,1.758,0,0,1,1.248-2.983h.063a.691.691,0,1,0,0-1.381H13.9a1.749,1.749,0,0,1-1.6-1.06.649.649,0,0,1-.047-.173,1.74,1.74,0,0,1,.4-1.8l.005-.005.04-.04,0,0a.691.691,0,0,0,0-.976l0,0a.686.686,0,0,0-.487-.2h0a.686.686,0,0,0-.488.2l-.04.04-.005.005A1.758,1.758,0,0,1,8.691,2.046V1.983a.691.691,0,0,0-1.381,0V2.1a1.749,1.749,0,0,1-1.06,1.6.647.647,0,0,1-.173.047,1.74,1.74,0,0,1-1.8-.4l-.005-.005-.04-.04a.687.687,0,0,0-.489-.2h0a.691.691,0,0,0-.489,1.18l.04.04.005.005a1.741,1.741,0,0,1,.358,1.911A1.74,1.74,0,0,1,2.059,7.363H1.983a.691.691,0,0,0,0,1.381H2.1a1.758,1.758,0,0,1,1.251,2.983l-.005.005-.039.039,0,0a.691.691,0,0,0,0,.976l0,0a.692.692,0,0,0,.977,0l.04-.04.005,0a1.741,1.741,0,0,1,1.911-.358ZM5.348,8A2.652,2.652,0,1,1,8,10.652,2.655,2.655,0,0,1,5.348,8ZM6.641,8A1.359,1.359,0,1,0,8,6.641,1.361,1.361,0,0,0,6.641,8Z" fill="#ffb100"/>
</svg>
